@startuml
abstract class AbstractFactory{
    {abstract} createWindow()
    {abstract} createScrollBar()
}

class ConcreteFactory1{
    createWindow()
    createScrollBar()
}

class ConcreteFactory2{
    createWindow()
    createScrollBar()
}
ConcreteFactory1 --|> AbstractFactory
ConcreteFactory2 --|> AbstractFactory

interface AbstractProductA
class ProductA2
class ProductA1

Window <|..ProductA2
Window <|..ProductA1

interface AbstractProductB
class ProductB1
class ProductB2

ScrollBar <|..ProductB1
ScrollBar <|..ProductB2

Cliente --> AbstractProductA
Cliente --> AbstractProductB
AbstractFactory <-- Cliente 


ConcreteFactory1 .> ProductA1
ConcreteFactory1 .> ProductB2

ConcreteFactory2 .> ProductA2
ConcreteFactory2 .> ProductB1

hide empty attributes
hide empty methods

@enduml
